<mxfile host="app.diagrams.net" modified="2024-02-03T11:57:55.667Z" agent="Mozilla/5.0 (Macintosh; Intel Mac OS X 10_15_7) AppleWebKit/605.1.15 (KHTML, like Gecko) Version/16.1 Safari/605.1.15" etag="CxFxwoYAXF4wMj7aZSmJ" version="23.1.1" type="github">
  <diagram name="Page-1" id="g6OOpXdOrillYNmz9Y5Y">
    <mxGraphModel dx="957" dy="802" grid="1" gridSize="10" guides="1" tooltips="1" connect="1" arrows="1" fold="1" page="1" pageScale="1" pageWidth="827" pageHeight="1169" math="0" shadow="0">
      <root>
        <mxCell id="0" />
        <mxCell id="1" parent="0" />
        <mxCell id="UkO_Ct3AJwwtKn-UaWPX-9" value="" style="rounded=1;whiteSpace=wrap;html=1;" parent="1" vertex="1">
          <mxGeometry x="100" y="40" width="720" height="650" as="geometry" />
        </mxCell>
        <mxCell id="UkO_Ct3AJwwtKn-UaWPX-1" value="Maria DB" style="shape=cylinder3;whiteSpace=wrap;html=1;boundedLbl=1;backgroundOutline=1;size=15;" parent="1" vertex="1">
          <mxGeometry x="570" y="180" width="190" height="180" as="geometry" />
        </mxCell>
        <mxCell id="UkO_Ct3AJwwtKn-UaWPX-2" value="Audit server" style="rounded=0;whiteSpace=wrap;html=1;" parent="1" vertex="1">
          <mxGeometry x="200" y="210" width="200" height="120" as="geometry" />
        </mxCell>
        <mxCell id="UkO_Ct3AJwwtKn-UaWPX-3" style="edgeStyle=orthogonalEdgeStyle;rounded=0;orthogonalLoop=1;jettySize=auto;html=1;entryX=0;entryY=0.5;entryDx=0;entryDy=0;entryPerimeter=0;startArrow=classic;startFill=1;" parent="1" source="UkO_Ct3AJwwtKn-UaWPX-2" target="UkO_Ct3AJwwtKn-UaWPX-1" edge="1">
          <mxGeometry relative="1" as="geometry" />
        </mxCell>
        <mxCell id="UkO_Ct3AJwwtKn-UaWPX-8" value="" style="group" parent="1" vertex="1" connectable="0">
          <mxGeometry x="200" y="470" width="350" height="150" as="geometry" />
        </mxCell>
        <mxCell id="UkO_Ct3AJwwtKn-UaWPX-4" value="" style="rounded=0;whiteSpace=wrap;html=1;" parent="UkO_Ct3AJwwtKn-UaWPX-8" vertex="1">
          <mxGeometry width="350" height="150" as="geometry" />
        </mxCell>
        <mxCell id="UkO_Ct3AJwwtKn-UaWPX-5" value="Generic App" style="text;html=1;strokeColor=none;fillColor=none;align=center;verticalAlign=middle;whiteSpace=wrap;rounded=0;" parent="UkO_Ct3AJwwtKn-UaWPX-8" vertex="1">
          <mxGeometry x="10" y="10" width="60" height="30" as="geometry" />
        </mxCell>
        <mxCell id="UkO_Ct3AJwwtKn-UaWPX-6" value="Audit client" style="shape=document;whiteSpace=wrap;html=1;boundedLbl=1;" parent="UkO_Ct3AJwwtKn-UaWPX-8" vertex="1">
          <mxGeometry x="104" y="45" width="120" height="80" as="geometry" />
        </mxCell>
        <mxCell id="UkO_Ct3AJwwtKn-UaWPX-7" style="edgeStyle=orthogonalEdgeStyle;rounded=0;orthogonalLoop=1;jettySize=auto;html=1;startArrow=classic;startFill=1;" parent="1" source="UkO_Ct3AJwwtKn-UaWPX-6" target="UkO_Ct3AJwwtKn-UaWPX-2" edge="1">
          <mxGeometry relative="1" as="geometry" />
        </mxCell>
      </root>
    </mxGraphModel>
  </diagram>
</mxfile>
